<svg width="24" height="22" viewBox="0 0 24 22" fill="none" xmlns="http://www.w3.org/2000/svg">
<g filter="url(#filter0_d_27_369)">
<path fill-rule="evenodd" clip-rule="evenodd" d="M7 0C6.73478 0 6.48043 0.105357 6.29289 0.292893C6.10536 0.48043 6 0.734784 6 1V2.001C5.039 2.015 4.66 2.13 4.279 2.334C3.87638 2.54714 3.54714 2.87638 3.334 3.279C3.116 3.686 3 4.09 3 5.205V15.795C3 16.909 3.116 17.314 3.334 17.721C3.552 18.128 3.872 18.448 4.279 18.666C4.686 18.884 5.09 19 6.205 19H17.795C18.909 19 19.314 18.884 19.721 18.666C20.128 18.448 20.448 18.128 20.666 17.721C20.884 17.314 21 16.91 21 15.795V5.205C21 4.09 20.884 3.686 20.666 3.279C20.4529 2.87638 20.1236 2.54714 19.721 2.334C19.34 2.13 18.961 2.015 18 2V1C18 0.734784 17.8946 0.48043 17.7071 0.292893C17.5196 0.105357 17.2652 0 17 0C16.7348 0 16.4804 0.105357 16.2929 0.292893C16.1054 0.48043 16 0.734784 16 1V2H8V1C8 0.734784 7.89464 0.48043 7.70711 0.292893C7.51957 0.105357 7.26522 0 7 0ZM5 7V15.795C5 16.222 5.019 16.489 5.049 16.644C5.061 16.704 5.066 16.718 5.098 16.778C5.12452 16.8321 5.16808 16.876 5.222 16.903C5.282 16.934 5.295 16.939 5.356 16.951C5.511 16.981 5.778 17 6.205 17H17.795C18.222 17 18.489 16.981 18.644 16.951C18.6915 16.944 18.7371 16.9273 18.778 16.902C18.8321 16.8755 18.876 16.8319 18.903 16.778C18.9279 16.7371 18.9443 16.6915 18.951 16.644C18.981 16.489 19 16.222 19 15.795L19.004 7H5ZM13.75 11C13.5511 11 13.3603 11.079 13.2197 11.2197C13.079 11.3603 13 11.5511 13 11.75V14.25C13 14.664 13.336 15 13.75 15H16.25C16.4489 15 16.6397 14.921 16.7803 14.7803C16.921 14.6397 17 14.4489 17 14.25V11.75C17 11.5511 16.921 11.3603 16.7803 11.2197C16.6397 11.079 16.4489 11 16.25 11H13.75Z" fill="#100C34"/>
</g>
<defs>
<filter id="filter0_d_27_369" x="-1" y="0" width="26" height="27" filterUnits="userSpaceOnUse" color-interpolation-filters="sRGB">
<feFlood flood-opacity="0" result="BackgroundImageFix"/>
<feColorMatrix in="SourceAlpha" type="matrix" values="0 0 0 0 0 0 0 0 0 0 0 0 0 0 0 0 0 0 127 0" result="hardAlpha"/>
<feOffset dy="4"/>
<feGaussianBlur stdDeviation="2"/>
<feComposite in2="hardAlpha" operator="out"/>
<feColorMatrix type="matrix" values="0 0 0 0 0 0 0 0 0 0 0 0 0 0 0 0 0 0 0.25 0"/>
<feBlend mode="normal" in2="BackgroundImageFix" result="effect1_dropShadow_27_369"/>
<feBlend mode="normal" in="SourceGraphic" in2="effect1_dropShadow_27_369" result="shape"/>
</filter>
</defs>
</svg>
